<svg viewBox="0 0 1000 1000"><path d="M624.1,499.9c0,68.4-55.5,123.8-123.9,123.8s-123.9-55.5-123.9-123.8,55.5-123.8,123.9-123.8h0c68.4,0,123.9,55.4,123.9,123.8ZM802.8,349.8c1.8,39.2,2.2,50.9,2.2,150.1s-.4,110.9-2.2,150.1c-1.7,36.2-7.7,55.9-12.8,69-6.7,17.3-14.8,29.7-27.8,42.7-13,13-25.4,21.1-42.7,27.8-13.1,5.1-32.8,11.1-69,12.8-39.2,1.8-51,2.2-150.2,2.2s-111-.4-150.2-2.2c-36.3-1.7-55.9-7.7-69-12.8-17.4-6.7-29.7-14.8-42.8-27.8-13-13-21.1-25.4-27.8-42.7-5.1-13.1-11.2-32.7-12.8-69-1.8-39.2-2.1-50.9-2.1-150.1s.4-110.9,2.1-150.1c1.7-36.2,7.7-55.9,12.8-69,6.7-17.3,14.8-29.7,27.8-42.7,13-13,25.4-21.1,42.8-27.8,13.1-5.1,32.8-11.1,69-12.8,34.3-1.5,47.6-2,116.9-2.1h0c9.9,0,20.9,0,33.4,0,99.3,0,111,.4,150.2,2.1,36.3,1.7,55.9,7.7,69,12.8,17.4,6.7,29.7,14.8,42.7,27.8,13,13,21.1,25.4,27.8,42.7,5.1,13.1,11.2,32.7,12.8,69ZM691.1,499.9c0-105.4-85.5-190.8-190.9-190.8,0,0,0,0,0,0h0s0,0,0,0c-105.4,0-190.9,85.4-190.9,190.8s85.5,190.8,190.9,190.8,190.9-85.4,190.9-190.8ZM743.3,301.6c0-24.6-20-44.6-44.6-44.6h0c-24.6,0-44.6,20-44.6,44.6s20,44.6,44.6,44.6,44.6-20,44.6-44.6ZM1000,499.7c0,137.2-.3,274.6-1,283.2-3.1,39.5-10,66.8-23.6,94.8-27,55.7-76.6,96.3-136.5,111.8-21.7,5.6-41.4,8.3-75.2,9.8-12.1.6-138.4.8-264.6.8s-252.5-.4-264.9-.9c-29.2-1.4-52-4.3-72.6-9.6-59.5-15.4-110.1-56.6-136.5-111.5-13.8-28.7-20.4-54.9-23.8-96.6C.3,769.4,0,708.4,0,499.8S0,377.1,0,337.3c.2-119.5,1.2-124.2,4.6-147.6,7-48.2,26.2-88.7,57.9-121.6,17.4-18.1,35.1-30.9,57.5-42.1,29-14.5,55.7-21.2,98.5-24.8C230.4.2,291.4,0,500.2,0h162.7c119.5.2,124.2,1.2,147.5,4.6,48.2,7,88.7,26.2,121.7,57.8,18.5,17.8,31.3,35.3,42.8,58.7,14,28.5,20.9,55.5,24,95.7.7,8.6,1,145.7,1,282.9ZM872,499.9c0-100.9-.5-113.6-2.2-153.2-1.9-39.6-8.1-66.6-17.3-90.2-9.5-24.4-22.2-45.2-42.9-65.8-20.7-20.7-41.4-33.4-65.8-42.8-23.7-9.2-50.7-15.4-90.3-17.3-39.7-1.8-52.3-2.2-153.2-2.2h0-.1,0c-100.9,0-113.6.4-153.3,2.2-39.6,1.8-66.6,8.1-90.2,17.3-24.5,9.5-45.2,22.2-65.9,42.8-20.7,20.7-33.4,41.4-42.9,65.8-9.2,23.6-15.5,50.6-17.3,90.2-1.8,39.6-2.2,52.3-2.2,153.2s.4,113.5,2.2,153.2c1.8,39.6,8.1,66.6,17.3,90.2,9.5,24.4,22.2,45.2,42.9,65.8,20.7,20.7,41.4,33.4,65.8,42.9,23.7,9.2,50.7,15.4,90.3,17.3,39.7,1.8,52.3,2.2,153.3,2.2s113.6-.4,153.3-2.2c39.6-1.8,66.6-8.1,90.3-17.3,24.4-9.5,45.2-22.2,65.8-42.9,20.7-20.7,33.4-41.4,42.9-65.8,9.1-23.6,15.4-50.6,17.3-90.2,1.8-39.6,2.2-52.3,2.2-153.2Z"/></svg>